<svg width="29" height="29" viewBox="0 0 29 29" fill="none" xmlns="http://www.w3.org/2000/svg">
<path d="M24.5129 22.9997L28.6992 27.1837C28.8944 27.3858 29.0024 27.6566 29 27.9376C28.9975 28.2186 28.8848 28.4874 28.6861 28.6861C28.4874 28.8848 28.2186 28.9975 27.9376 29C27.6566 29.0024 27.3858 28.8944 27.1837 28.6992L22.9975 24.5129C20.2619 26.8567 16.7249 28.0498 13.1286 27.842C9.53224 27.6341 6.15623 26.0413 3.70892 23.398C1.26161 20.7546 -0.0667456 17.2661 0.00258345 13.6644C0.0719125 10.0628 1.53354 6.62798 4.08076 4.08076C6.62798 1.53354 10.0628 0.0719125 13.6644 0.00258345C17.2661 -0.0667456 20.7546 1.26161 23.398 3.70892C26.0413 6.15623 27.6341 9.53224 27.842 13.1286C28.0498 16.7249 26.8567 20.2619 24.5129 22.9975V22.9997ZM13.9328 25.7219C17.0594 25.7219 20.058 24.4798 22.2689 22.2689C24.4798 20.058 25.7219 17.0594 25.7219 13.9328C25.7219 10.8061 24.4798 7.80749 22.2689 5.5966C20.058 3.38571 17.0594 2.14365 13.9328 2.14365C10.8061 2.14365 7.80749 3.38571 5.5966 5.5966C3.38571 7.80749 2.14365 10.8061 2.14365 13.9328C2.14365 17.0594 3.38571 20.058 5.5966 22.2689C7.80749 24.4798 10.8061 25.7219 13.9328 25.7219Z" fill="white"/>
</svg>
