<svg width="31" height="29" viewBox="0 0 31 29" fill="none" xmlns="http://www.w3.org/2000/svg">
<path d="M30.792 27.1873C28.595 23.4703 25.0783 20.6805 20.9162 19.3528C22.9112 18.1877 24.4615 16.4115 25.329 14.2972C26.1965 12.1828 26.3332 9.84718 25.718 7.64913C25.1028 5.45109 23.7699 3.51219 21.9239 2.13031C20.0779 0.748429 17.8211 0 15.5 0C13.1789 0 10.922 0.748429 9.07608 2.13031C7.23011 3.51219 5.89716 5.45109 5.28199 7.64913C4.66683 9.84718 4.80349 12.1828 5.67097 14.2972C6.53846 16.4115 8.08878 18.1877 10.0838 19.3528C5.92167 20.6805 2.405 23.4703 0.207996 27.1873C0.115846 27.3186 0.0523412 27.4672 0.0214732 27.6238C-0.00939478 27.7803 -0.00695928 27.9415 0.0286266 28.0971C0.0642125 28.2526 0.13218 28.3993 0.228257 28.5279C0.324335 28.6564 0.446446 28.7641 0.586918 28.844C0.72739 28.924 0.883187 28.9746 1.04452 28.9926C1.20585 29.0106 1.36923 28.9956 1.52439 28.9487C1.67955 28.9017 1.82314 28.8237 1.94613 28.7196C2.06912 28.6155 2.16886 28.4875 2.23908 28.3437C3.58487 26.0598 5.51852 24.1637 7.84606 22.8454C10.1736 21.5272 12.8132 20.8333 15.5 20.8333C18.1868 20.8333 20.8264 21.5272 23.1539 22.8454C25.4815 24.1637 27.4151 26.0598 28.7609 28.3437C28.8311 28.4875 28.9309 28.6155 29.0539 28.7196C29.1769 28.8237 29.3204 28.9017 29.4756 28.9487C29.6308 28.9956 29.7942 29.0106 29.9555 28.9926C30.1168 28.9746 30.2726 28.924 30.4131 28.844C30.5536 28.7641 30.6757 28.6564 30.7717 28.5279C30.8678 28.3993 30.9358 28.2526 30.9714 28.0971C31.007 27.9415 31.0094 27.7803 30.9785 27.6238C30.9477 27.4672 30.8842 27.3186 30.792 27.1873ZM7.25792 10.4198C7.25792 8.81878 7.74131 7.25375 8.64696 5.92258C9.55261 4.59142 10.8398 3.5539 12.3459 2.94123C13.8519 2.32857 15.5091 2.16826 17.108 2.4806C18.7068 2.79294 20.1754 3.56388 21.328 4.69594C22.4807 5.82801 23.2657 7.27034 23.5837 8.84056C23.9017 10.4108 23.7385 12.0383 23.1147 13.5175C22.4909 14.9966 21.4345 16.2608 20.0791 17.1502C18.7237 18.0397 17.1301 18.5144 15.5 18.5144C13.3141 18.5144 11.2177 17.6616 9.67197 16.1436C8.12628 14.6255 7.25792 12.5666 7.25792 10.4198Z" fill="white"/>
</svg>
