<svg width="23" height="29" viewBox="0 0 23 29" fill="none" xmlns="http://www.w3.org/2000/svg">
<path d="M21.2308 4.46853H15.9456V2.72582C15.9456 1.22253 14.7554 0 13.2918 0H9.7635C8.2999 0 7.10965 1.22253 7.10965 2.72582V4.46853H1.76923C0.792173 4.46853 0 5.28218 0 6.28574V27.1828C0 28.1863 0.792173 29 1.76923 29H21.2308C22.2078 29 23 28.1863 23 27.1828V6.28574C23 5.28218 22.2078 4.46853 21.2308 4.46853H21.2308ZM8.87891 2.72582C8.87891 2.22427 9.27522 1.81721 9.76353 1.81721H13.2918C13.7801 1.81721 14.1764 2.22427 14.1764 2.72582V4.46853H8.87891V2.72582ZM21.2308 27.1828H1.76926V6.28574H7.10968V8.1552C7.10968 8.1552 7.08624 9.06287 7.98902 9.06287C8.98421 9.06287 8.87894 8.1552 8.87894 8.1552V6.28574H14.1765V8.1552C14.1765 8.1552 14.1176 9.06744 15.0575 9.06744C15.9422 9.06744 15.9457 8.1552 15.9457 8.1552V6.28574H21.2308V27.1828H21.2308Z" fill="white"/>
</svg>
